<svg xmlns="http://www.w3.org/2000/svg" width="29.084" height="35.796" viewBox="0 0 29.084 35.796">
  <g id="apple" transform="translate(-4.5 0)">
    <g id="Group_198" data-name="Group 198" transform="translate(4.5 0)">
      <path id="Path_383" data-name="Path 383" d="M26.161.018a7.264,7.264,0,0,0-5.2,2.622A7.127,7.127,0,0,0,19,8.269a6.474,6.474,0,0,0,5.537-2.814c2.137-3.009,1.7-5.349,1.629-5.437Zm7.414,26.25c-.107-.215-5.2-2.761-4.727-7.656a7.783,7.783,0,0,1,3.8-6.385,7.923,7.923,0,0,0-6.3-3.559,6.593,6.593,0,0,0-2.806.26c-1.137.311-3.7,1.318-4.4,1.358S16.326,9.117,14.064,8.8a7.568,7.568,0,0,0-4.081.734,8.922,8.922,0,0,0-4.64,5c-1.459,3.316-.7,8.569-.15,10.2a22.831,22.831,0,0,0,2.848,6.255,15.129,15.129,0,0,0,3.712,4.249,4.7,4.7,0,0,0,4.123.15,9.171,9.171,0,0,1,3.951-1.056,10.075,10.075,0,0,1,3.987,1.206,5.063,5.063,0,0,0,3.7-.235c1.21-.494,2.962-2.369,5.007-6.17a10.737,10.737,0,0,0,1.058-2.868Z" transform="translate(-4.5 0)" fill="#535353"/>
      <path id="Path_384" data-name="Path 384" d="M26.161.018a7.264,7.264,0,0,0-5.2,2.622A7.127,7.127,0,0,0,19,8.269a6.474,6.474,0,0,0,5.537-2.814c2.137-3.009,1.7-5.349,1.629-5.437Zm7.414,26.25c-.107-.215-5.2-2.761-4.727-7.656a7.783,7.783,0,0,1,3.8-6.385,7.923,7.923,0,0,0-6.3-3.559,6.593,6.593,0,0,0-2.806.26c-1.137.311-3.7,1.318-4.4,1.358S16.326,9.117,14.064,8.8a7.568,7.568,0,0,0-4.081.734,8.922,8.922,0,0,0-4.64,5c-1.459,3.316-.7,8.569-.15,10.2a22.831,22.831,0,0,0,2.848,6.255,15.129,15.129,0,0,0,3.712,4.249,4.7,4.7,0,0,0,4.123.15,9.171,9.171,0,0,1,3.951-1.056,10.075,10.075,0,0,1,3.987,1.206,5.063,5.063,0,0,0,3.7-.235c1.21-.494,2.962-2.369,5.007-6.17a10.737,10.737,0,0,0,1.058-2.868Z" transform="translate(-4.5 0)" fill="#535353"/>
    </g>
  </g>
</svg>
