<svg xmlns="http://www.w3.org/2000/svg" xmlns:xlink="http://www.w3.org/1999/xlink" width="428" height="440" viewBox="0 0 428 440">
  <defs>
    <clipPath id="clip-path">
      <rect id="Rectangle_202" data-name="Rectangle 202" width="428" height="440" transform="translate(0 486)" fill="#1ec7ff"/>
    </clipPath>
  </defs>
  <g id="Mask_Group_1" data-name="Mask Group 1" transform="translate(0 -486)" clip-path="url(#clip-path)">
    <path id="Exclusion_2" data-name="Exclusion 2" d="M451.935,437.138.985,437v-1.157H0L.232,38.524a42.21,42.21,0,0,1,3.543-4.742A69.323,69.323,0,0,1,14.837,23.347,73.148,73.148,0,0,1,34.064,12.914,81.961,81.961,0,0,1,62.1,8.171a129.008,129.008,0,0,1,15.54.937c4.673.561,9.366,1.368,14.349,2.467,9.253,2.04,18.1,4.8,26.658,7.468C135.5,24.3,152.914,29.729,173.86,29.729c.433,0,.843,0,1.252-.006,22.39-.227,32.053-6.347,41.4-12.266a80.98,80.98,0,0,1,14.179-7.646,57.013,57.013,0,0,1,9.353-2.753,79.162,79.162,0,0,1,12.085-1.48c1.6-.082,3.2-.123,4.772-.123a91.015,91.015,0,0,1,23.12,3.028A200.876,200.876,0,0,1,300,15.145l.011,0c12.751,4.763,25.937,9.688,43.059,9.688.839,0,1.7-.012,2.548-.035,21.317-.592,28.22-6.587,34.9-12.385a53.185,53.185,0,0,1,8.509-6.4,40.729,40.729,0,0,1,13.259-4.6A89.536,89.536,0,0,1,418.178,0a96.014,96.014,0,0,1,22.933,2.818,66.565,66.565,0,0,1,8.942,2.818l.026,12.388a95.094,95.094,0,0,0-30.76-5A92.88,92.88,0,0,0,403.27,14.4c-11.485,2.021-16.713,6.437-21.768,10.708-3.333,2.816-6.78,5.728-11.992,7.953a45.189,45.189,0,0,1-9.409,2.774,84.634,84.634,0,0,1-13.494,1.321c-.844.023-1.7.034-2.55.034a93.2,93.2,0,0,1-23.082-2.943,205.049,205.049,0,0,1-19.967-6.478l-.018-.006c-12.756-4.635-25.945-9.427-43.1-9.427-1.572,0-3.178.04-4.774.12-18.343.913-27.125,6.323-35.617,11.555a78.209,78.209,0,0,1-15.855,8.072A63.235,63.235,0,0,1,190.68,40.81,97.551,97.551,0,0,1,176.1,41.947c-.41,0-.831.006-1.252.006a127.37,127.37,0,0,1-15.048-.891c-4.538-.534-9.108-1.3-13.97-2.351-9.033-1.946-17.75-4.591-26.181-7.148l-.01,0c-17.138-5.2-34.86-10.576-56.547-10.576-22.5,0-38.121,8.028-47.267,14.763a61.163,61.163,0,0,0-14.6,14.763L.986,435.838l449.965.146-.873-417.959c.655.235,1.015.382,1.018.383Z" transform="translate(-12.288 485.88)" fill="#1ec7ff"/>
    <path id="Path_275" data-name="Path 275" d="M.232,37.134S18.593,7.886,62.239,7.886s70.292,21.185,113.256,20.767S214.2,7.279,252.679,5.386s56.077,19.529,93.7,18.525S376.528,6,403.164,1.37a96.123,96.123,0,0,1,47.93,3.966l.842,414.789L0,419.984Z" transform="translate(-12.288 505.875)" fill="#1ec7ff"/>
  </g>
</svg>
