<svg xmlns="http://www.w3.org/2000/svg" xmlns:xlink="http://www.w3.org/1999/xlink" width="428" height="587" viewBox="0 0 428 587">
  <defs>
    <clipPath id="clip-path">
      <rect id="Rectangle_202" data-name="Rectangle 202" width="428" height="587" transform="translate(0 485.672)" fill="#b8ebff"/>
    </clipPath>
  </defs>
  <g id="Mask_Group_16" data-name="Mask Group 16" transform="translate(0 -485.672)" clip-path="url(#clip-path)">
    <path id="Exclusion_2" data-name="Exclusion 2" d="M451.935,376.464.985,376.341v-1H0L.232,33.177a37.173,37.173,0,0,1,3.543-4.084,66.092,66.092,0,0,1,11.061-8.986,77.48,77.48,0,0,1,19.227-8.986A93.956,93.956,0,0,1,62.1,7.037a149.555,149.555,0,0,1,15.54.807c4.673.483,9.366,1.178,14.349,2.125,9.253,1.757,18.1,4.134,26.658,6.432,16.846,4.525,34.264,9.2,55.21,9.2.433,0,.843,0,1.252-.005,22.39-.2,32.053-5.466,41.4-10.564a85.867,85.867,0,0,1,14.179-6.585,64.133,64.133,0,0,1,9.353-2.371A91.352,91.352,0,0,1,252.128,4.8c1.6-.07,3.2-.106,4.772-.106A104.891,104.891,0,0,1,280.02,7.3c7.018,1.567,13.61,3.687,19.985,5.738l.011,0c12.751,4.1,25.937,8.344,43.059,8.344.839,0,1.7-.01,2.548-.03,21.317-.51,28.22-5.673,34.9-10.666a53.269,53.269,0,0,1,8.509-5.514,45.228,45.228,0,0,1,13.259-3.966A103.6,103.6,0,0,1,418.178,0a110.684,110.684,0,0,1,22.933,2.427,74.4,74.4,0,0,1,8.942,2.427l.026,10.669a108.908,108.908,0,0,0-30.76-4.309,107.488,107.488,0,0,0-16.048,1.191c-11.485,1.74-16.713,5.543-21.768,9.221a46.26,46.26,0,0,1-11.992,6.849,50.8,50.8,0,0,1-9.409,2.389A97.861,97.861,0,0,1,346.607,32c-.844.02-1.7.03-2.55.03A107.445,107.445,0,0,1,320.976,29.5c-7-1.522-13.594-3.584-19.967-5.579l-.018-.005c-12.756-3.991-25.945-8.118-43.1-8.118-1.572,0-3.178.035-4.774.1-18.343.786-27.125,5.446-35.617,9.952A83.564,83.564,0,0,1,201.641,32.8a71.735,71.735,0,0,1-10.961,2.345,112.958,112.958,0,0,1-14.582.979c-.41,0-.831.005-1.252.005a147.665,147.665,0,0,1-15.048-.767c-4.538-.46-9.108-1.123-13.97-2.025-9.033-1.676-17.75-3.954-26.181-6.156l-.01,0C102.5,22.7,84.775,18.07,63.088,18.07c-22.5,0-38.121,6.914-47.267,12.714C5.955,37.041,1.263,43.434,1.217,43.5L.986,375.344l449.965.126-.873-359.947c.655.2,1.015.329,1.018.33Z" transform="translate(-12.288 485.929)" fill="#b8ebff"/>
    <path id="Path_275" data-name="Path 275" d="M.232,31.979S18.593,6.792,62.239,6.792s70.292,18.244,113.256,17.884S214.2,6.269,252.679,4.638s56.077,16.819,93.7,15.954S376.528,5.168,403.164,1.18A110.559,110.559,0,0,1,451.094,4.6l.842,357.217L0,361.69Z" transform="translate(-12.288 503.149)" fill="#b8ebff"/>
    <rect id="Rectangle_218" data-name="Rectangle 218" width="428" height="241" transform="translate(0 831.672)" fill="#b8ebff"/>
  </g>
</svg>
