<svg xmlns="http://www.w3.org/2000/svg" width="200" height="160" viewBox="0 0 200 160">
  <g id="Group_231" data-name="Group 231" transform="translate(-114 -495)">
    <rect id="Rectangle_381" data-name="Rectangle 381" width="200" height="160" rx="10" transform="translate(114 495)" fill="#fff"/>
    <g id="Customer_Survey-rafiki" data-name="Customer Survey-rafiki" transform="translate(114 445)">
      <g id="freepik--background-complete--inject-2" transform="translate(0 55)">
        <rect id="Rectangle_322" data-name="Rectangle 322" width="200" height="0.097" transform="translate(0 132.447)" fill="#ebebeb"/>
        <rect id="Rectangle_323" data-name="Rectangle 323" width="12.873" height="0.097" transform="translate(167.654 138.701)" fill="#ebebeb"/>
        <rect id="Rectangle_324" data-name="Rectangle 324" width="3.378" height="0.097" transform="translate(129.077 139.758)" fill="#ebebeb"/>
        <rect id="Rectangle_325" data-name="Rectangle 325" width="7.459" height="0.097" transform="translate(158.815 135.094)" fill="#ebebeb"/>
        <rect id="Rectangle_326" data-name="Rectangle 326" width="16.787" height="0.097" transform="translate(20.39 135.747)" fill="#ebebeb"/>
        <rect id="Rectangle_327" data-name="Rectangle 327" width="2.46" height="0.097" transform="translate(41.839 135.747)" fill="#ebebeb"/>
        <rect id="Rectangle_328" data-name="Rectangle 328" width="36.411" height="0.097" transform="translate(52.931 137.387)" fill="#ebebeb"/>
        <path id="Path_1395" data-name="Path 1395" d="M115.475,164.918H40.425A2.219,2.219,0,0,1,38.21,162.7V57.2A2.219,2.219,0,0,1,40.425,55h75.05a2.219,2.219,0,0,1,2.219,2.219V162.7A2.219,2.219,0,0,1,115.475,164.918ZM40.425,55.078A2.122,2.122,0,0,0,38.307,57.2V162.7a2.122,2.122,0,0,0,2.118,2.122h75.05A2.126,2.126,0,0,0,117.6,162.7V57.2a2.126,2.126,0,0,0-2.122-2.122Z" transform="translate(-23.359 -55)" fill="#ebebeb"/>
        <path id="Path_1396" data-name="Path 1396" d="M331.773,164.918H256.719A2.223,2.223,0,0,1,254.5,162.7V57.2a2.223,2.223,0,0,1,2.219-2.2h75.053a2.219,2.219,0,0,1,2.212,2.2V162.7A2.219,2.219,0,0,1,331.773,164.918ZM256.719,55.078A2.126,2.126,0,0,0,254.6,57.2V162.7a2.126,2.126,0,0,0,2.122,2.122h75.053a2.126,2.126,0,0,0,2.122-2.122V57.2a2.126,2.126,0,0,0-2.122-2.122Z" transform="translate(-149.92 -55)" fill="#ebebeb"/>
        <rect id="Rectangle_329" data-name="Rectangle 329" width="13.643" height="50.812" transform="translate(120.983 132.447) rotate(180)" fill="#e6e6e6"/>
        <path id="Path_1397" data-name="Path 1397" d="M270.05,375.2h-2.27V370.63h4.652Z" transform="translate(-160.594 -242.757)" fill="#f0f0f0"/>
        <rect id="Rectangle_330" data-name="Rectangle 330" width="13.643" height="50.812" transform="translate(178.91 132.447) rotate(180)" fill="#e6e6e6"/>
        <rect id="Rectangle_331" data-name="Rectangle 331" width="57.509" height="49.055" transform="translate(165.895 130.691) rotate(180)" fill="#f0f0f0"/>
        <rect id="Rectangle_332" data-name="Rectangle 332" width="53.983" height="13.452" transform="translate(164.097 95.435) rotate(180)" fill="#e6e6e6"/>
        <path id="Path_1398" data-name="Path 1398" d="M325.987,260.78h5.1c2.215,0,4.334-1.66,5.857-4.59H320.13C321.654,259.128,323.772,260.78,325.987,260.78Z" transform="translate(-191.735 -174.869)" fill="#f0f0f0"/>
        <path id="Path_1399" data-name="Path 1399" d="M406.153,375.2h2.27V370.63H403.77Z" transform="translate(-241.172 -242.757)" fill="#f0f0f0"/>
        <rect id="Rectangle_333" data-name="Rectangle 333" width="53.983" height="13.452" transform="translate(164.097 111.733) rotate(180)" fill="#e6e6e6"/>
        <path id="Path_1400" data-name="Path 1400" d="M325.987,301h5.1c2.215,0,4.334-1.66,5.857-4.59H320.13C321.654,299.36,323.772,301,325.987,301Z" transform="translate(-191.735 -198.832)" fill="#f0f0f0"/>
        <rect id="Rectangle_334" data-name="Rectangle 334" width="53.983" height="13.452" transform="translate(164.097 128.518) rotate(180)" fill="#e6e6e6"/>
        <path id="Path_1401" data-name="Path 1401" d="M325.987,341.21h5.1c2.215,0,4.334-1.66,5.857-4.59H320.13C321.654,339.551,323.772,341.21,325.987,341.21Z" transform="translate(-191.735 -221.966)" fill="#f0f0f0"/>
        <rect id="Rectangle_335" data-name="Rectangle 335" width="52.098" height="52.716" transform="translate(83.618 64.917) rotate(180)" fill="#e6e6e6"/>
        <rect id="Rectangle_336" data-name="Rectangle 336" width="54.757" height="52.716" transform="translate(81.451 64.917) rotate(180)" fill="#f0f0f0"/>
        <rect id="Rectangle_337" data-name="Rectangle 337" width="43.543" height="45.58" transform="translate(78.059 16.787) rotate(90)" fill="#fff"/>
        <path id="Path_1402" data-name="Path 1402" d="M120.2,112.8l-8.364,8.38a10.809,10.809,0,0,0,0,15.267l8.364,8.368a.439.439,0,0,0,.622,0l8.368-8.368a10.809,10.809,0,0,0,0-15.267l-8.364-8.38a.447.447,0,0,0-.626,0Zm-7.742,23.01a9.927,9.927,0,0,1,0-14.02Zm16.111,0v-14a9.927,9.927,0,0,1,0,14.02Z" transform="translate(-65.037 -89.119)" fill="#f0f0f0"/>
        <path id="Path_1403" data-name="Path 1403" d="M358.458,205H329.35l-1.66,17.187H356.8Z" transform="translate(-195.916 -144.12)" fill="#e6e6e6"/>
        <path id="Path_1404" data-name="Path 1404" d="M356.608,249.22l-.117.952H327.38l.12-.952Z" transform="translate(-195.772 -170.798)" fill="#e6e6e6"/>
        <path id="Path_1405" data-name="Path 1405" d="M356.151,205H327.044l-1.664,17.187h29.108Z" transform="translate(-194.535 -144.12)" fill="#f0f0f0"/>
        <path id="Path_1406" data-name="Path 1406" d="M355.5,222.291l1.217-14.9a.365.365,0,0,0-.361-.389H329.6a.365.365,0,0,0-.365.334L328,222.232a.365.365,0,0,0,.365.389h26.76A.361.361,0,0,0,355.5,222.291Z" transform="translate(-196.155 -145.343)" fill="#fff"/>
        <path id="Path_1407" data-name="Path 1407" d="M330.161,249.22l-.117.952H297.99l.117-.952Z" transform="translate(-178.125 -170.798)" fill="#f0f0f0"/>
        <rect id="Rectangle_338" data-name="Rectangle 338" width="54.66" height="36.337" transform="translate(167.937 49.113) rotate(180)" fill="#e6e6e6"/>
        <rect id="Rectangle_339" data-name="Rectangle 339" width="54.66" height="36.337" transform="translate(166.675 49.113) rotate(180)" fill="#f5f5f5"/>
        <rect id="Rectangle_340" data-name="Rectangle 340" width="31.436" height="50.299" transform="translate(164.448 15.228) rotate(90)" fill="#fff"/>
        <rect id="Rectangle_341" data-name="Rectangle 341" width="31.436" height="0.917" transform="translate(113.96 15.224) rotate(90)" fill="#e6e6e6"/>
        <rect id="Rectangle_342" data-name="Rectangle 342" width="52.856" height="3.288" transform="translate(165.754 44.044) rotate(180)" fill="#f5f5f5"/>
        <path id="Path_1408" data-name="Path 1408" d="M270.318,77.45h60.633a.338.338,0,0,1,.334.334h0a.334.334,0,0,1-.334.334H270.318a.334.334,0,0,1-.338-.334h0a.338.338,0,0,1,.338-.334Z" transform="translate(-159.383 -68.724)" fill="#e6e6e6"/>
        <path id="Path_1409" data-name="Path 1409" d="M267.83,76.99a.84.84,0,1,0,.247-.6A.84.84,0,0,0,267.83,76.99Z" transform="translate(-160.672 -67.929)" fill="#e6e6e6"/>
        <path id="Path_1410" data-name="Path 1410" d="M418.841,80.2h0a.455.455,0,0,0,.455-.447v-.972a.455.455,0,0,0-.455-.455h0a.451.451,0,0,0-.451.455v.972a.455.455,0,0,0,.451.447Z" transform="translate(-250.11 -69.262)" fill="#e6e6e6"/>
        <path id="Path_1411" data-name="Path 1411" d="M283.136,80.2h0a.459.459,0,0,0,.439-.447v-.972a.455.455,0,0,0-.455-.455h0a.451.451,0,0,0-.451.455v.972a.455.455,0,0,0,.466.447Z" transform="translate(-169.587 -69.262)" fill="#e6e6e6"/>
        <rect id="Rectangle_343" data-name="Rectangle 343" width="56.028" height="35.303" transform="translate(165.723 44.364) rotate(180)" fill="#e0e0e0" opacity="0.4"/>
        <path id="Path_1412" data-name="Path 1412" d="M403.51,76.99a.84.84,0,1,0,.84-.84A.84.84,0,0,0,403.51,76.99Z" transform="translate(-241.013 -67.929)" fill="#e6e6e6"/>
        <rect id="Rectangle_344" data-name="Rectangle 344" width="4.493" height="38.973" transform="translate(84.347 129.929) rotate(180)" fill="#f0f0f0"/>
        <rect id="Rectangle_345" data-name="Rectangle 345" width="51.507" height="2.468" transform="translate(80.308 132.397) rotate(180)" fill="#f0f0f0"/>
        <rect id="Rectangle_346" data-name="Rectangle 346" width="50.466" height="38.973" transform="translate(27.075 90.956)" fill="#f5f5f5"/>
        <rect id="Rectangle_347" data-name="Rectangle 347" width="43.4" height="12.78" rx="6.39" transform="translate(31.756 94.417)" fill="#f0f0f0"/>
        <rect id="Rectangle_348" data-name="Rectangle 348" width="43.4" height="12.78" rx="6.39" transform="translate(31.756 112.349)" fill="#f0f0f0"/>
        <path id="Path_1413" data-name="Path 1413" d="M109.008,303.933h18.8a.878.878,0,0,0,.878-.875h0a.882.882,0,0,0-.878-.878h-18.8a.882.882,0,0,0-.878.878h0a.878.878,0,0,0,.878.875Z" transform="translate(-64.733 -202.352)" fill="#f5f5f5"/>
        <path id="Path_1414" data-name="Path 1414" d="M109.008,346.633h18.8a.878.878,0,0,0,.878-.875h0a.882.882,0,0,0-.878-.878h-18.8a.882.882,0,0,0-.878.878h0a.878.878,0,0,0,.878.875Z" transform="translate(-64.733 -227.016)" fill="#f5f5f5"/>
      </g>
      <g id="freepik--Shadow--inject-2" transform="translate(21.809 196.2)">
        <ellipse id="freepik--path--inject-2" cx="78.191" cy="4.4" rx="78.191" ry="4.4" fill="#f5f5f5"/>
      </g>
      <g id="freepik--Survey--inject-2" transform="translate(44.055 68.44)">
        <path id="Path_1415" data-name="Path 1415" d="M179.877,101.45H108.05l5.581,97.818h71.824Z" transform="translate(-108.05 -96.836)" fill="#263238"/>
        <path id="Path_1416" data-name="Path 1416" d="M183.467,101.45H111.64l5.581,97.818h71.827Z" transform="translate(-110.245 -96.836)" fill="#6ab1d4"/>
        <path id="Path_1417" data-name="Path 1417" d="M183.685,109.91h-63.6l4.559,88.544H189.9Z" transform="translate(-115.41 -102.008)" opacity="0.5"/>
        <path id="Path_1418" data-name="Path 1418" d="M120.09,109.91c4.726,29.516,1.485,59.032,6.219,88.544h65.239c-4.726-29.512-1.485-59.028-6.219-88.544Z" transform="translate(-115.41 -102.008)" fill="#fff"/>
        <g id="Group_225" data-name="Group 225" transform="translate(11.781 33.333)" opacity="0.3">
          <path id="Path_1419" data-name="Path 1419" d="M144.6,176.44a5.624,5.624,0,0,1,5.574,5.375,5.107,5.107,0,0,1-5.154,5.321,5.574,5.574,0,0,1-5.523-5.352,5.142,5.142,0,0,1,1.411-3.766,5.072,5.072,0,0,1,3.692-1.555m-.039-1.123a6.16,6.16,0,0,0-6.192,6.464,6.728,6.728,0,0,0,6.666,6.464A6.219,6.219,0,0,0,151.3,181.8,6.79,6.79,0,0,0,144.56,175.34Z" transform="translate(-138.361 -175.34)" fill="#6ab1d4"/>
        </g>
        <path id="Path_1420" data-name="Path 1420" d="M213.085,302.92h-20.6a1.084,1.084,0,0,0-1.1,1.2h0a1.364,1.364,0,0,0,1.325,1.209h20.6a1.077,1.077,0,0,0,1.088-1.209h0A1.356,1.356,0,0,0,213.085,302.92Z" transform="translate(-158.993 -220)" fill="#e0e0e0"/>
        <path id="Path_1421" data-name="Path 1421" d="M223.422,289.87H191.388a1.1,1.1,0,0,0-1.116,1.2h0a1.322,1.322,0,0,0,1.3,1.209h32.019a1.1,1.1,0,0,0,1.127-1.2h0a1.318,1.318,0,0,0-1.294-1.217Z" transform="translate(-158.311 -212.022)" fill="#e0e0e0"/>
        <g id="Group_226" data-name="Group 226" transform="translate(12.384 54.228)" opacity="0.3">
          <path id="Path_1422" data-name="Path 1422" d="M146.2,230.227a5.543,5.543,0,0,1,5.5,5.352,5.154,5.154,0,0,1-1.434,3.766,5.092,5.092,0,0,1-3.708,1.555,5.577,5.577,0,0,1-5.535-5.352,5.146,5.146,0,0,1,5.177-5.321m0-1.127h0a6.254,6.254,0,0,0-6.289,6.464,6.736,6.736,0,0,0,6.693,6.468,6.219,6.219,0,0,0,6.238-6.468A6.689,6.689,0,0,0,146.2,229.1Z" transform="translate(-139.911 -229.1)" fill="#6ab1d4"/>
        </g>
        <path id="Path_1423" data-name="Path 1423" d="M198.5,184.694H187.481a1.263,1.263,0,0,1-1.252-1.209h0a1.166,1.166,0,0,1,1.166-1.2H198.41a1.271,1.271,0,0,1,1.259,1.2h0a1.166,1.166,0,0,1-1.17,1.209Z" transform="translate(-155.842 -146.25)" fill="#e0e0e0"/>
        <path id="Path_1424" data-name="Path 1424" d="M236.807,184.694h-7.463a1.267,1.267,0,0,1-1.255-1.209h0a1.166,1.166,0,0,1,1.166-1.2h7.466a1.267,1.267,0,0,1,1.255,1.2h0a1.166,1.166,0,0,1-1.17,1.209Z" transform="translate(-181.432 -146.25)" fill="#e0e0e0"/>
        <path id="Path_1425" data-name="Path 1425" d="M217.515,197.744H187.937a1.255,1.255,0,0,1-1.248-1.209h0a1.166,1.166,0,0,1,1.166-1.2h29.574a1.252,1.252,0,0,1,1.244,1.2h0a1.166,1.166,0,0,1-1.158,1.209Z" transform="translate(-156.123 -154.227)" fill="#e0e0e0"/>
        <g id="Group_227" data-name="Group 227" transform="translate(13.441 75.126)" opacity="0.3">
          <path id="Path_1426" data-name="Path 1426" d="M148.71,283.992a5.892,5.892,0,0,1,5.752,5.356,4.917,4.917,0,0,1-1.209,3.762,4.746,4.746,0,0,1-3.6,1.555,6,6,0,0,1-5.869-5.352,4.851,4.851,0,0,1,1.267-3.766,4.921,4.921,0,0,1,3.657-1.555m-.054-1.123a5.908,5.908,0,0,0-6,6.464,7.263,7.263,0,0,0,7.1,6.464,5.789,5.789,0,0,0,5.83-6.464,7.089,7.089,0,0,0-6.934-6.464Z" transform="translate(-142.632 -282.867)" fill="#6ab1d4"/>
        </g>
        <path id="Path_1427" data-name="Path 1427" d="M223.485,249.13h-34.13a1.166,1.166,0,0,0-1.166,1.2h0a1.259,1.259,0,0,0,1.248,1.2h34.145a1.166,1.166,0,0,0,1.166-1.2h0a1.252,1.252,0,0,0-1.263-1.2Z" transform="translate(-157.04 -187.117)" fill="#e0e0e0"/>
        <path id="Path_1428" data-name="Path 1428" d="M215.164,236.07H188.975a1.166,1.166,0,0,0-1.166,1.209h0a1.248,1.248,0,0,0,1.24,1.2h26.193a1.166,1.166,0,0,0,1.166-1.2h0a1.244,1.244,0,0,0-1.244-1.209Z" transform="translate(-156.808 -179.133)" fill="#e0e0e0"/>
        <path id="Path_1429" data-name="Path 1429" d="M149.181,187.6l-.459-.754a12.85,12.85,0,0,0-3.832-3.541l.544-.964A14.863,14.863,0,0,1,149.2,185.6a36.258,36.258,0,0,1,7.334-6.965l.7.91a33.649,33.649,0,0,0-7.568,7.358C149.507,187.134,149.344,187.371,149.181,187.6Z" transform="translate(-130.571 -144.018)" fill="#6ab1d4"/>
        <path id="Path_1430" data-name="Path 1430" d="M150.687,241.4c-.152-.253-.307-.505-.463-.754A13.057,13.057,0,0,0,146.4,237.1l.552-.964a14.9,14.9,0,0,1,3.743,3.249,35.775,35.775,0,0,1,7.408-6.965l.688.91a32.926,32.926,0,0,0-7.622,7.358Z" transform="translate(-131.494 -176.901)" fill="#6ab1d4"/>
        <path id="Path_1431" data-name="Path 1431" d="M153.708,295.325l-.513-.754a14.238,14.238,0,0,0-4.034-3.541l.505-.964a16.345,16.345,0,0,1,3.922,3.245,32.1,32.1,0,0,1,7.058-6.961l.727.91a29.393,29.393,0,0,0-7.229,7.358Z" transform="translate(-133.182 -209.87)" fill="#6ab1d4"/>
        <path id="Path_1432" data-name="Path 1432" d="M220.793,129q-1.026,2.239-2.1,4.474a9.62,9.62,0,0,1,5.3,7.8h5.165A15.217,15.217,0,0,0,220.793,129Z" transform="translate(-175.687 -113.678)" fill="#6ab1d4"/>
        <path id="Path_1433" data-name="Path 1433" d="M173.42,141.726h5.166a8.228,8.228,0,0,1,3.591-7.529q-1.508-2.239-3.063-4.478A13.053,13.053,0,0,0,173.42,141.726Z" transform="translate(-147.993 -114.119)" fill="#263238"/>
        <path id="Path_1434" data-name="Path 1434" d="M195.116,124.539a12.725,12.725,0,0,0-7,2.013q1.555,2.239,3.063,4.478a8.162,8.162,0,0,1,4.532-1.329,9.425,9.425,0,0,1,4.275,1.053q1.073-2.239,2.1-4.474A15.236,15.236,0,0,0,195.116,124.539Z" transform="translate(-156.999 -110.951)" fill="#6ab1d4"/>
        <path id="Path_1435" data-name="Path 1435" d="M195.116,124.539a12.725,12.725,0,0,0-7,2.013q1.555,2.239,3.063,4.478a8.162,8.162,0,0,1,4.532-1.329,9.425,9.425,0,0,1,4.275,1.053q1.073-2.239,2.1-4.474A15.236,15.236,0,0,0,195.116,124.539Z" transform="translate(-156.999 -110.951)" fill="#263238" opacity="0.5"/>
        <path id="Path_1436" data-name="Path 1436" d="M212.515,151.51s-5.216,2.134-5.768,2.523a1.24,1.24,0,0,0-.222,1.761,1.3,1.3,0,0,0,1.78.338C208.877,155.719,212.523,151.51,212.515,151.51Zm-5.48,3.887a.61.61,0,0,1,.109-.867.649.649,0,0,1,.878.167.61.61,0,0,1-.109.867.649.649,0,0,1-.878-.152Z" transform="translate(-168.085 -127.439)" fill="#263238"/>
        <path id="Path_1449" data-name="Path 1449" d="M192.871,97.734a7.849,7.849,0,0,0-7.093-4.244h-6.219a2.425,2.425,0,0,1-2.157-1.127,5.96,5.96,0,0,0-5.282-2.783,5.233,5.233,0,0,0-4.96,2.783,2.128,2.128,0,0,1-2.029,1.127h-6.219a6.837,6.837,0,0,0-6.607,4.244.63.63,0,0,0-.039.28.777.777,0,0,0,.777.738h39.21a.7.7,0,0,0,.618-1.018Zm-20.5-3.541a1.858,1.858,0,0,1-1.815-1.73,1.617,1.617,0,0,1,1.632-1.73,1.854,1.854,0,0,1,1.831,1.73,1.617,1.617,0,0,1-1.648,1.73Z" transform="translate(-135.079 -89.58)" fill="#263238"/>
      </g>
      <g id="freepik--Character--inject-2" transform="translate(111.984 82.691)">
        <path id="Path_1450" data-name="Path 1450" d="M358.97,408.029a1.244,1.244,0,0,1-.863-.214.268.268,0,0,1-.027-.3.288.288,0,0,1,.2-.159c.459-.128,1.52.439,1.555.466a.066.066,0,0,1,.039.07.058.058,0,0,1-.047.054A5.024,5.024,0,0,1,358.97,408.029Zm-.513-.552a.432.432,0,0,0-.128,0,.175.175,0,0,0-.124.093.187.187,0,0,0,0,.152c.155.183.878.187,1.4.113a3.362,3.362,0,0,0-1.147-.358Z" transform="translate(-326.892 -292.891)" fill="#6ab1d4"/>
        <path id="Path_1451" data-name="Path 1451" d="M360.847,406.883h-.027c-.361-.155-1.115-.777-1.1-1.1,0-.078.047-.171.233-.19a.552.552,0,0,1,.389.117,2.2,2.2,0,0,1,.567,1.1.07.07,0,0,1,0,.062A.066.066,0,0,1,360.847,406.883Zm-.828-1.166h-.039c-.12,0-.124.058-.124.074,0,.194.509.68.886.89a1.811,1.811,0,0,0-.478-.878.389.389,0,0,0-.245-.078Z" transform="translate(-327.914 -291.824)" fill="#6ab1d4"/>
        <path id="Path_1452" data-name="Path 1452" d="M364.579,398.335h-2.857L360.7,391.72h2.857Z" transform="translate(-328.514 -283.342)" fill="#ffc3bd"/>
        <path id="Path_1453" data-name="Path 1453" d="M355.268,407.89h3.109a.288.288,0,0,1,.264.194l.847,2.538a.389.389,0,0,1-.354.505c-1.127,0-2.76-.082-4.174-.082-1.652,0-1.5.089-3.444.089-1.166,0-1.629-1.185-1.166-1.294a8.88,8.88,0,0,0,4.229-1.73A1.2,1.2,0,0,1,355.268,407.89Z" transform="translate(-322.079 -293.227)" fill="#263238"/>
        <path id="Path_1454" data-name="Path 1454" d="M360.7,391.73l.529,3.409h2.857l-.529-3.409Z" transform="translate(-328.514 -283.348)" opacity="0.2"/>
        <path id="Path_1455" data-name="Path 1455" d="M366.783,225.45l-1.943,1.963,2.977,1.053s1.166-1.6.346-2.7Z" transform="translate(-331.045 -181.697)" fill="#ffc3bd"/>
        <path id="Path_1456" data-name="Path 1456" d="M363.16,233.244l2.973.435.665-2.126-2.977-1.053Z" transform="translate(-330.018 -184.784)" fill="#ffc3bd"/>
        <path id="Path_1457" data-name="Path 1457" d="M365.5,163.27c.253.544.455,1.007.657,1.512s.389.991.583,1.489c.369,1,.7,2.017,1.007,3.047a32.174,32.174,0,0,1,.777,3.168l.148.816.12.832c.043.276.07.564.093.847s.062.54.062.9v.952l-.023.439-.043.416c-.051.56-.124,1.084-.194,1.617-.155,1.049-.334,2.076-.532,3.109-.412,2.033-.863,4.019-1.407,6.021l-3.541-.7c.225-1.974.459-3.98.645-5.955.089-.987.187-1.971.241-2.935.023-.474.051-.956.051-1.411v-.972l-.027-.257a5.855,5.855,0,0,0-.086-.61c-.035-.218-.066-.435-.117-.657l-.144-.665-.167-.669c-.241-.894-.513-1.792-.824-2.69s-.657-1.792-1.022-2.678c-.179-.447-.365-.89-.56-1.325s-.389-.89-.579-1.267Z" transform="translate(-328.465 -143.685)" fill="#263238"/>
        <path id="Path_1458" data-name="Path 1458" d="M338.65,221.87s.474,21.859,1.757,30.566c1.337,9.056,6.219,38.2,6.219,38.2h4.835s-1.733-27.74-2.285-36.652c-.6-9.717-.47-32.116-.47-32.116Z" transform="translate(-315.034 -179.508)" fill="#6ab1d4"/>
        <path id="Path_1459" data-name="Path 1459" d="M356.179,393.84c-.023,0,.5,2.009.5,2.009h5.885l-.043-1.792Z" transform="translate(-325.749 -284.638)" fill="#263238"/>
        <path id="Path_1460" data-name="Path 1460" d="M333.608,131.78a9.017,9.017,0,0,1-1.228,2.068,1.368,1.368,0,0,0,1.147.218Z" transform="translate(-311.201 -124.434)" fill="#ed847e"/>
        <path id="Path_1461" data-name="Path 1461" d="M336.175,126.348a.167.167,0,0,1-.086-.023,1.1,1.1,0,0,0-1-.187.14.14,0,0,1-.183-.082.144.144,0,0,1,.089-.183,1.38,1.38,0,0,1,1.267.218.144.144,0,0,1,.027.2.148.148,0,0,1-.117.058Z" transform="translate(-312.742 -120.782)" fill="#263238"/>
        <path id="Path_1462" data-name="Path 1462" d="M344.72,137.52c-.482,2.091-1.026,5.92.389,7.311,0,0-.645,2.118-4.528,2.118-4.275,0-1.963-2.118-1.963-2.118,2.332-.556,2.351-2.282,2-3.906Z" transform="translate(-314.633 -127.943)" fill="#ffc3bd"/>
        <path id="Path_1463" data-name="Path 1463" d="M345.03,154.861c.42-.851.882-1.831,0-2.134-.964-.338-6.293-.68-8.162-.051a1.943,1.943,0,0,0-1.4,2.363Z" transform="translate(-313.05 -136.994)" fill="#6ab1d4"/>
        <path id="Path_1464" data-name="Path 1464" d="M365.057,157.9c2.46,1.135,3.712,9.74,3.712,9.74l-4.956,1.555a50.326,50.326,0,0,1-2.149-7C360.9,158.609,362.539,156.743,365.057,157.9Z" transform="translate(-328.988 -140.193)" fill="#263238"/>
        <path id="Path_1465" data-name="Path 1465" d="M285.5,189.8l-2.285-1.967-2.056,2.993a4.714,4.714,0,0,0,3.887.875Z" transform="translate(-279.889 -158.699)" fill="#ffc3bd"/>
        <path id="Path_1466" data-name="Path 1466" d="M278.2,185.38l-.315,2.958,1.271.987,2.056-2.993Z" transform="translate(-277.89 -157.201)" fill="#ffc3bd"/>
        <path id="Path_1467" data-name="Path 1467" d="M343.121,122.462c-.288,2.969-.307,4.719-1.862,6.242a3.887,3.887,0,0,1-6.553-2.033c-.544-2.666,0-7.074,2.966-8.255a3.922,3.922,0,0,1,5.449,4.046Z" transform="translate(-312.509 -116.068)" fill="#ffc3bd"/>
        <path id="Path_1468" data-name="Path 1468" d="M337.865,120.226c-.26-2.052-.218-2.83.878-3.284-1.139-.225-2.126-.257-2.6-.921s-.583-2.363,1.7-3.141c-.21.389.455,1.2,2.557.466s5.165-.808,5.441,1.329c1.112-.389,2.973,3.043.777,5.55-1.831,2.1-3.051,3.549-3.413,4.664a.389.389,0,0,1-.532.233,4.82,4.82,0,0,0-2.721.113.389.389,0,0,1-.443-.2A18.148,18.148,0,0,1,337.865,120.226Z" transform="translate(-313.335 -112.88)" fill="#263238"/>
        <path id="Path_1469" data-name="Path 1469" d="M360.48,117.107a1.931,1.931,0,0,1,2.631-.326,7.836,7.836,0,0,0-2.631.326Z" transform="translate(-328.379 -115.051)" fill="#263238"/>
        <path id="Path_1470" data-name="Path 1470" d="M360.86,115.343a1.491,1.491,0,0,0,.276-2.243A5.647,5.647,0,0,1,360.86,115.343Z" transform="translate(-328.612 -113.014)" fill="#263238"/>
        <path id="Path_1471" data-name="Path 1471" d="M340.961,129.974a3.556,3.556,0,0,1-1.042,1.924c-.719.68-1.341.2-1.36-.676-.019-.777.33-2.091,1.166-2.441S341.109,129.1,340.961,129.974Z" transform="translate(-314.978 -122.542)" fill="#ffc3bd"/>
        <path id="Path_1472" data-name="Path 1472" d="M339.68,253.12c.28,6.522.719,14.093,1.357,18.419.245,1.648.6,3.957,1.03,6.635C343.784,268.8,344.811,256.719,339.68,253.12Z" transform="translate(-315.664 -198.612)" opacity="0.3"/>
        <path id="Path_1473" data-name="Path 1473" d="M332.791,408.029c-.365,0-.719-.051-.832-.214a.264.264,0,0,1,0-.3.389.389,0,0,1,.222-.159c.478-.128,1.458.439,1.5.466a.058.058,0,0,1,.027.07.07.07,0,0,1-.054.054,5.22,5.22,0,0,1-.863.078Zm-.431-.552a.459.459,0,0,0-.132,0,.206.206,0,0,0-.136.093c-.051.086-.035.128-.019.152.128.183.847.187,1.384.113a2.957,2.957,0,0,0-1.1-.358Z" transform="translate(-310.916 -292.891)" fill="#6ab1d4"/>
        <path id="Path_1474" data-name="Path 1474" d="M334.877,406.88h-.027c-.338-.155-1-.777-.937-1.1,0-.078.07-.171.257-.19a.5.5,0,0,1,.389.117,1.8,1.8,0,0,1,.389,1.1.081.081,0,0,1-.031.062A.074.074,0,0,1,334.877,406.88Zm-.657-1.166h-.039c-.124,0-.132.058-.136.074-.039.194.408.68.754.89a1.555,1.555,0,0,0-.346-.878.358.358,0,0,0-.233-.078Z" transform="translate(-312.135 -291.82)" fill="#6ab1d4"/>
        <path id="Path_1475" data-name="Path 1475" d="M339.907,398.335h-2.853L337,391.72h2.857Z" transform="translate(-314.025 -283.342)" fill="#ffc3bd"/>
        <path id="Path_1476" data-name="Path 1476" d="M326.222,407.89h3.109a.233.233,0,0,1,.233.194l.478,2.538a.431.431,0,0,1-.431.505c-1.123,0-2.748-.082-4.159-.082-1.656,0-3.086.089-5.026.089-1.166,0-1.454-1.185-.96-1.294,2.25-.486,4.077-.54,6.048-1.73A1.388,1.388,0,0,1,326.222,407.89Z" transform="translate(-303.166 -293.227)" fill="#263238"/>
        <path id="Path_1477" data-name="Path 1477" d="M337.01,391.73l.023,3.409h2.857l-.023-3.409Z" transform="translate(-314.031 -283.348)" opacity="0.2"/>
        <path id="Path_1478" data-name="Path 1478" d="M323.742,221.87s-1.166,21.35-1.143,30.056c0,9.056,4.586,38.712,4.586,38.712h4.835s-1.259-29.127-.715-38.013c.579-9.717,3.385-30.748,3.385-30.748Z" transform="translate(-305.222 -179.508)" fill="#6ab1d4"/>
        <path id="Path_1479" data-name="Path 1479" d="M332.177,393.84c-.023,0,.2,2.009.2,2.009h5.885l.225-1.792Z" transform="translate(-311.076 -284.638)" fill="#263238"/>
        <path id="Path_1480" data-name="Path 1480" d="M323.058,156.976s-4.866,12.294-2.748,33.543h17.77c.187-2.332-1.671-22.644.979-33.69a39.4,39.4,0,0,0-5.092-.645,56.47,56.47,0,0,0-6.491,0,29.089,29.089,0,0,0-4.419.793Z" transform="translate(-303.496 -139.295)" fill="#263238"/>
        <path id="Path_1481" data-name="Path 1481" d="M320.772,179.976c-.264,1.943-.482,4.163-.622,6.607,3.451-3.172,4.633-11.073,4.633-11.073Z" transform="translate(-303.725 -151.167)" opacity="0.2"/>
        <path id="Path_1482" data-name="Path 1482" d="M305.372,170.557c-.7,1.819-1.407,3.572-2.184,5.333s-1.582,3.5-2.488,5.239l-.354.649-.179.326c-.074.132-.066.14-.268.478a3.8,3.8,0,0,1-1.4,1.306,4.182,4.182,0,0,1-1.52.459,6.4,6.4,0,0,1-2.177-.175,12.05,12.05,0,0,1-1.648-.536,21.438,21.438,0,0,1-2.787-1.4c-.439-.253-.859-.525-1.275-.777s-.793-.575-1.24-.886l2.1-3.218a27.309,27.309,0,0,0,4.722,2.048,7.129,7.129,0,0,0,1.061.241,1.493,1.493,0,0,0,.622,0c.023,0-.051-.023-.179.043a1.045,1.045,0,0,0-.389.342c-.082.136.023-.066.058-.144l.14-.307.28-.61c.738-1.648,1.423-3.354,2.087-5.053s1.31-3.471,1.9-5.185Z" transform="translate(-283.979 -147.022)" fill="#263238"/>
        <path id="Path_1483" data-name="Path 1483" d="M323.2,159.372c.91,2.542-5.527,12.776-5.527,12.776l-3.817-3.782s.976-3.214,2.262-7.086C317.389,157.476,322.337,156.943,323.2,159.372Z" transform="translate(-299.879 -140.401)" fill="#263238"/>
      </g>
    </g>
  </g>
</svg>
