<svg xmlns="http://www.w3.org/2000/svg" width="200" height="160" viewBox="0 0 200 160">
  <g id="Group_230" data-name="Group 230" transform="translate(-114 -255)">
    <rect id="Rectangle_380" data-name="Rectangle 380" width="200" height="160" rx="10" transform="translate(114 255)" fill="#fff"/>
    <g id="Online_Doctor-rafiki" data-name="Online Doctor-rafiki" transform="translate(114 200)">
      <g id="freepik--background-complete--inject-2" transform="translate(0 55)">
        <rect id="Rectangle_349" data-name="Rectangle 349" width="200" height="0.099" transform="translate(0 132.089)" fill="#ebebeb"/>
        <rect id="Rectangle_350" data-name="Rectangle 350" width="13.136" height="0.099" transform="translate(166.994 138.47)" fill="#ebebeb"/>
        <rect id="Rectangle_351" data-name="Rectangle 351" width="3.447" height="0.099" transform="translate(129.031 139.549)" fill="#ebebeb"/>
        <rect id="Rectangle_352" data-name="Rectangle 352" width="18.907" height="0.099" transform="translate(147.375 134.79)" fill="#ebebeb"/>
        <rect id="Rectangle_353" data-name="Rectangle 353" width="9.392" height="0.099" transform="translate(20.806 135.456)" fill="#ebebeb"/>
        <rect id="Rectangle_354" data-name="Rectangle 354" width="10.252" height="0.099" transform="translate(34.032 135.456)" fill="#ebebeb"/>
        <rect id="Rectangle_355" data-name="Rectangle 355" width="25.637" height="0.099" transform="translate(52.654 137.13)" fill="#ebebeb"/>
        <path id="Path_1484" data-name="Path 1484" d="M117.053,167.162H40.471A2.265,2.265,0,0,1,38.21,164.9V57.245A2.265,2.265,0,0,1,40.471,55h76.582a2.265,2.265,0,0,1,2.265,2.265V164.9A2.265,2.265,0,0,1,117.053,167.162ZM40.471,55.079a2.166,2.166,0,0,0-2.162,2.166V164.9a2.165,2.165,0,0,0,2.162,2.165h76.582a2.169,2.169,0,0,0,2.166-2.166V57.245a2.169,2.169,0,0,0-2.166-2.166Z" transform="translate(-23.055 -55)" fill="#ebebeb"/>
        <path id="Path_1485" data-name="Path 1485" d="M333.351,167.162H256.765A2.269,2.269,0,0,1,254.5,164.9V57.245A2.269,2.269,0,0,1,256.765,55h76.586a2.265,2.265,0,0,1,2.257,2.245V164.9A2.265,2.265,0,0,1,333.351,167.162ZM256.765,55.079a2.169,2.169,0,0,0-2.166,2.166V164.9a2.169,2.169,0,0,0,2.166,2.165h76.586a2.169,2.169,0,0,0,2.165-2.166V57.245a2.169,2.169,0,0,0-2.165-2.166Z" transform="translate(-151.869 -55)" fill="#ebebeb"/>
        <rect id="Rectangle_356" data-name="Rectangle 356" width="62.653" height="121.777" transform="translate(114.109 10.312)" fill="#ebebeb"/>
        <rect id="Rectangle_357" data-name="Rectangle 357" width="53.333" height="117.878" transform="translate(118.77 14.211)" fill="#f5f5f5"/>
        <rect id="Rectangle_358" data-name="Rectangle 358" width="14.996" height="4.145" transform="translate(137.507 24.2)" fill="#fff"/>
        <path id="Path_1486" data-name="Path 1486" d="M396.439,218.82h8.135a1.269,1.269,0,0,1,1.269,1.269h0a1.269,1.269,0,0,1-1.269,1.269h-8.135a1.269,1.269,0,0,1-1.269-1.269h0A1.269,1.269,0,0,1,396.439,218.82Z" transform="translate(-237.026 -152.769)" fill="#fff"/>
        <rect id="Rectangle_359" data-name="Rectangle 359" width="41.668" height="33.581" transform="translate(27.914 23.528)" fill="#ebebeb"/>
        <rect id="Rectangle_360" data-name="Rectangle 360" width="29.107" height="37.194" transform="translate(67.658 25.79) rotate(90)" fill="#fafafa"/>
        <rect id="Rectangle_361" data-name="Rectangle 361" width="1.392" height="28.52" transform="translate(63.35 39.451) rotate(90)" fill="#e0e0e0"/>
        <rect id="Rectangle_362" data-name="Rectangle 362" width="1.392" height="28.52" transform="translate(63.35 42.672) rotate(90)" fill="#e0e0e0"/>
        <rect id="Rectangle_363" data-name="Rectangle 363" width="1.392" height="28.52" transform="translate(63.35 45.889) rotate(90)" fill="#e0e0e0"/>
        <rect id="Rectangle_364" data-name="Rectangle 364" width="1.392" height="14.219" transform="translate(56.238 49.11) rotate(90)" fill="#e0e0e0"/>
        <path id="Path_1487" data-name="Path 1487" d="M76.96,115.307a4.335,4.335,0,0,1-4.363,4.335,4.291,4.291,0,0,1-2.237-.623V113.07h5.949A4.335,4.335,0,0,1,76.96,115.307Z" transform="translate(-42.454 -89.645)" fill="#ebebeb"/>
        <path id="Path_1488" data-name="Path 1488" d="M165.445,113.07v5.949a4.335,4.335,0,0,1-5.949-5.949Z" transform="translate(-95.307 -89.645)" fill="#ebebeb"/>
        <path id="Path_1489" data-name="Path 1489" d="M77.008,185.519a4.311,4.311,0,0,1-.619,2.233H70.44V181.8a4.339,4.339,0,0,1,6.568,3.716Z" transform="translate(-42.503 -130.283)" fill="#ebebeb"/>
        <path id="Path_1490" data-name="Path 1490" d="M165.442,181.784v5.949h-5.949a4.276,4.276,0,0,1-.623-2.233,4.343,4.343,0,0,1,6.576-3.72Z" transform="translate(-95.304 -130.269)" fill="#ebebeb"/>
        <circle id="Ellipse_141" data-name="Ellipse 141" cx="3.692" cy="3.692" r="3.692" transform="translate(44.908 35.902) rotate(-80.78)" fill="#e0e0e0"/>
        <rect id="Rectangle_365" data-name="Rectangle 365" width="82.448" height="2.967" transform="translate(20.806 83.526)" fill="#ebebeb"/>
        <rect id="Rectangle_366" data-name="Rectangle 366" width="26.787" height="44.726" transform="translate(76.501 87.363)" fill="#f5f5f5"/>
        <rect id="Rectangle_367" data-name="Rectangle 367" width="26.787" height="44.726" transform="translate(21.826 87.363)" fill="#f5f5f5"/>
        <rect id="Rectangle_368" data-name="Rectangle 368" width="0.916" height="44.726" transform="translate(21.826 87.363)" fill="#ebebeb"/>
        <rect id="Rectangle_369" data-name="Rectangle 369" width="0.916" height="44.726" transform="translate(76.403 87.363)" fill="#ebebeb"/>
        <path id="Path_1491" data-name="Path 1491" d="M83.006,244.12H78.08l.4,7.151h4.133Z" transform="translate(-47.112 -167.824)" fill="#f0f0f0"/>
        <rect id="Rectangle_370" data-name="Rectangle 370" width="25.736" height="3.102" transform="translate(53.443 80.374)" fill="#f0f0f0"/>
        <rect id="Rectangle_371" data-name="Rectangle 371" width="11.867" height="2.376" transform="translate(67.404 80.738)" fill="#fafafa"/>
      </g>
      <g id="freepik--Shadow--inject-2" transform="translate(22.254 196.021)">
        <ellipse id="freepik--path--inject-2" cx="77.746" cy="4.49" rx="77.746" ry="4.49" fill="#f5f5f5"/>
      </g>
      <g id="freepik--cross-icon--inject-2" transform="translate(123.606 146.868)">
        <circle id="Ellipse_142" data-name="Ellipse 142" cx="12.565" cy="12.565" r="12.565" transform="translate(0.159 0.155)" fill="#fff"/>
        <path id="Path_1492" data-name="Path 1492" d="M321.353,307.909a12.719,12.719,0,1,1,12.715-12.718A12.719,12.719,0,0,1,321.353,307.909Zm0-25.125a12.41,12.41,0,1,0,12.41,12.409,12.41,12.41,0,0,0-12.41-12.409Z" transform="translate(-308.63 -282.47)" fill="#6ab1d4"/>
        <rect id="Rectangle_372" data-name="Rectangle 372" width="4.045" height="14.246" transform="translate(10.701 5.596)" fill="#6ab1d4"/>
        <rect id="Rectangle_373" data-name="Rectangle 373" width="4.045" height="14.246" transform="translate(19.847 10.701) rotate(90)" fill="#6ab1d4"/>
      </g>
      <g id="freepik--pulse-icon--inject-2" transform="translate(47.163 59.458)">
        <path id="Path_1493" data-name="Path 1493" d="M125.7,69.742l-.27-.29A12.2,12.2,0,0,1,132.1,66.24l.056.4a11.8,11.8,0,0,0-6.453,3.105Z" transform="translate(-122.396 -66.24)" fill="#6ab1d4"/>
        <path id="Path_1494" data-name="Path 1494" d="M118.149,81.475l-.369-.143a12.2,12.2,0,0,1,1.586-2.832l.317.238A11.994,11.994,0,0,0,118.149,81.475Z" transform="translate(-117.78 -73.638)" fill="#6ab1d4"/>
        <circle id="Ellipse_143" data-name="Ellipse 143" cx="10.883" cy="10.883" r="10.883" transform="translate(0.551 1.265)" fill="#6ab1d4"/>
        <path id="Path_1495" data-name="Path 1495" d="M141.386,82.392a4.545,4.545,0,0,0-6.489-.059,4.541,4.541,0,0,0-6.485.059,4.644,4.644,0,0,0,.163,6.473l5.156,5.156a1.666,1.666,0,0,0,2.356,0l5.156-5.156A4.644,4.644,0,0,0,141.386,82.392Z" transform="translate(-123.451 -75.146)" fill="#fff"/>
        <path id="Path_1496" data-name="Path 1496" d="M134.084,95.771h0a.4.4,0,0,1-.361-.266l-2.3-6.715-.96,2.808a.4.4,0,0,1-.377.266h-3.843a.4.4,0,0,1,0-.793h3.57l1.245-3.637a.4.4,0,0,1,.75,0l2.336,6.834,2.269-5.342a.4.4,0,0,1,.71-.04l1.2,2.181h3.613a.4.4,0,0,1,0,.793h-3.843a.4.4,0,0,1-.349-.2l-.94-1.682-2.356,5.553A.4.4,0,0,1,134.084,95.771Z" transform="translate(-122.649 -78.867)" fill="#6ab1d4"/>
      </g>
      <g id="freepik--Character--inject-2" transform="translate(56.09 63.846)">
        <path id="Path_1497" data-name="Path 1497" d="M228.4,216.631H187.01a4.816,4.816,0,0,1-3.6-1.57,5.023,5.023,0,0,1-1.3-3.772L188.8,110.112a5.777,5.777,0,0,1,5.612-5.362h41.4a4.817,4.817,0,0,1,3.611,1.577,5.024,5.024,0,0,1,1.291,3.785l-6.7,101.177A5.773,5.773,0,0,1,228.4,216.631Z" transform="translate(-165.2 -93.864)" fill="#263238"/>
        <path id="Path_1498" data-name="Path 1498" d="M318.324,173.259h-1.043a1.356,1.356,0,0,1-1.368-1.467l1.281-18.954a1.586,1.586,0,0,1,1.567-1.467H319.8a1.356,1.356,0,0,1,1.368,1.467l-1.281,18.954A1.586,1.586,0,0,1,318.324,173.259Z" transform="translate(-245.942 -121.41)" fill="#263238"/>
        <path id="Path_1499" data-name="Path 1499" d="M194.187,160.645h-1.039a1.111,1.111,0,0,1-1.122-1.19l.464-6.846a1.309,1.309,0,0,1,1.281-1.19h1.043a1.115,1.115,0,0,1,1.118,1.19l-.464,6.846A1.3,1.3,0,0,1,194.187,160.645Z" transform="translate(-171.191 -121.499)" fill="#6ab1d4"/>
        <path id="Path_1500" data-name="Path 1500" d="M192.107,191.465h-1.043a1.111,1.111,0,0,1-1.118-1.19l.464-6.846a1.309,1.309,0,0,1,1.281-1.19h1.051a1.114,1.114,0,0,1,1.118,1.19l-.464,6.846a1.3,1.3,0,0,1-1.289,1.19Z" transform="translate(-169.936 -139.877)" fill="#6ab1d4"/>
        <path id="Path_1501" data-name="Path 1501" d="M226.195,216.655H184.8a4.816,4.816,0,0,1-3.6-1.57,5.023,5.023,0,0,1-1.3-3.772l6.695-101.177a5.776,5.776,0,0,1,5.632-5.346H233.6a4.816,4.816,0,0,1,3.6,1.571,5.023,5.023,0,0,1,1.3,3.775l-6.7,101.177A5.772,5.772,0,0,1,226.195,216.655Z" transform="translate(-163.866 -93.888)" fill="#6ab1d4"/>
        <path id="Path_1502" data-name="Path 1502" d="M181.02,218l6.536-96.758h51.187L232.207,218Z" transform="translate(-164.552 -103.814)" fill="#fff" opacity="0.3"/>
        <path id="Path_1503" data-name="Path 1503" d="M231.97,218l18.268-96.758H261.7L243.436,218Z" transform="translate(-195.294 -103.814)" fill="#fff" opacity="0.1"/>
        <path id="Path_1504" data-name="Path 1504" d="M210.13,218,228.4,121.24h5.81L215.94,218Z" transform="translate(-182.116 -103.814)" fill="#fff" opacity="0.1"/>
        <path id="Path_1505" data-name="Path 1505" d="M249.087,110.92h9.983a.595.595,0,0,1,.6.646h0a.706.706,0,0,1-.69.65H249a.6.6,0,0,1-.6-.65h0A.7.7,0,0,1,249.087,110.92Z" transform="translate(-205.205 -97.587)" fill="#fff"/>
        <path id="Path_1506" data-name="Path 1506" d="M237.659,392.965l-3.5.333-1.261-8.071,3.5-.337Z" transform="translate(-195.855 -260.659)" fill="#ffb573"/>
        <path id="Path_1507" data-name="Path 1507" d="M226.69,400.026l3.665-1.138a.258.258,0,0,1,.325.151l1.19,2.907a.6.6,0,0,1-.4.793,28.756,28.756,0,0,0-4.184,1.19c-1.868.793-2.649,1.856-4.66,1.856-1.44,0-1.765-1.321-1.154-1.5,2.776-.841,2.411-1.531,4.426-3.7A1.856,1.856,0,0,1,226.69,400.026Z" transform="translate(-188.785 -269.097)" fill="#263238"/>
        <path id="Path_1508" data-name="Path 1508" d="M232.9,385.227l.65,4.164,3.5-.337-.65-4.164Z" transform="translate(-195.855 -260.659)" opacity="0.2"/>
        <path id="Path_1509" data-name="Path 1509" d="M213.224,128.214a44.471,44.471,0,0,0-13.735.71,3.661,3.661,0,0,0-2.939,3.173c-.5,4.387-1.063,14.219,1.15,28.885l18.752-1.586c.036-2.661-1.856-14.786-.294-27.366a3.359,3.359,0,0,0-2.935-3.815Z" transform="translate(-173.65 -107.87)" fill="#fff"/>
        <path id="Path_1510" data-name="Path 1510" d="M211.75,137.235l.67,1.341a.4.4,0,0,0,.353.23l.726.04a.563.563,0,0,0,.361-.111l1.249-.932-1.543-1.122Z" transform="translate(-183.094 -113.131)" fill="#263238"/>
        <path id="Path_1511" data-name="Path 1511" d="M212.95,141a1.222,1.222,0,0,0-.845-.067,65.973,65.973,0,0,0-1.3,10.709c1.793,5.223,2.38,5.751,2.38,5.751l.908-6.286S213.069,144.674,212.95,141Z" transform="translate(-182.521 -115.189)" fill="#263238"/>
        <path id="Path_1512" data-name="Path 1512" d="M217.833,105.8c-.428,2.586-.793,7.31,1.063,8.979a8.938,8.938,0,0,1-6.2,3.268c-3.054.186-2.582-1.928-1.809-3.058,2.852-.761,2.713-2.887,2.154-4.874Z" transform="translate(-182.228 -94.498)" fill="#ffb573"/>
        <path id="Path_1513" data-name="Path 1513" d="M223.3,127.525a3.809,3.809,0,0,0-.67-.218.266.266,0,0,0-.3.123c-.294.5-1.19,2.733-6,3.589a9.979,9.979,0,0,1,2.3,2.618c1.444-.75,5.2-2.99,4.843-5.89A.294.294,0,0,0,223.3,127.525Z" transform="translate(-185.857 -107.469)" fill="#f5f5f5"/>
        <path id="Path_1514" data-name="Path 1514" d="M208.478,128.755a.278.278,0,0,0-.325-.333,3.729,3.729,0,0,0-.492.131.4.4,0,0,0-.1.059c-.369.341-2.38,3.244-.5,5.592a6.866,6.866,0,0,1,3.2-2.511A2.664,2.664,0,0,1,208.478,128.755Z" transform="translate(-179.786 -108.144)" fill="#f5f5f5"/>
        <path id="Path_1515" data-name="Path 1515" d="M220.042,110.24l-2.832,2.554a8.178,8.178,0,0,1,.286,1.412,3.513,3.513,0,0,0,2.645-2.578,3.76,3.76,0,0,0-.1-1.388Z" transform="translate(-186.388 -97.177)" opacity="0.2"/>
        <path id="Path_1516" data-name="Path 1516" d="M211.08,85.722c-2.443.956-2.6,2.963-2.38,5.156s2.61.742,3.141-.631S214.463,84.4,211.08,85.722Z" transform="translate(-181.21 -82.237)" fill="#263238"/>
        <path id="Path_1517" data-name="Path 1517" d="M218.791,88.511c-.678,3.454-.9,5.5-2.879,7.1a4.543,4.543,0,0,1-7.369-3.236c-.321-3.209.841-8.329,4.4-9.328a4.648,4.648,0,0,1,5.85,5.469Z" transform="translate(-181.128 -80.652)" fill="#ffb573"/>
        <path id="Path_1518" data-name="Path 1518" d="M217.4,88.023c-2.907.155-2.292-1.5-1.765-2.443s-.547-2.515.155-3.328c-1.253.5-2.574.087-4.252-1.079-1.3-.908-2.931,2.721-4.517.9-1.5-1.717-.107-4.307,3.494-4.724s4.256,2.13,6.619,1.9,1.543,1.721,1.079,2.118C220.2,81.5,221.282,83.4,217.4,88.023Z" transform="translate(-179.883 -77.304)" fill="#263238"/>
        <path id="Path_1519" data-name="Path 1519" d="M235,84.314a2.911,2.911,0,0,0,1.511-2.534C237.3,83.156,237.213,84.719,235,84.314Z" transform="translate(-197.123 -80.005)" fill="#263238"/>
        <path id="Path_1520" data-name="Path 1520" d="M215.349,105.558a2.38,2.38,0,0,0,1.816-.428.079.079,0,0,0,0-.115.083.083,0,0,0-.115,0,2.288,2.288,0,0,1-2.019.313.091.091,0,0,0-.107.056.083.083,0,0,0,.056.1,2.1,2.1,0,0,0,.369.071Z" transform="translate(-185.007 -94.01)" fill="#263238"/>
        <path id="Path_1521" data-name="Path 1521" d="M230.941,103.258a3.379,3.379,0,0,1-2.217,1.277c-1.154.151-1.539-.924-1.055-1.928.44-.9,1.586-2.07,2.649-1.757A1.476,1.476,0,0,1,230.941,103.258Z" transform="translate(-192.576 -91.48)" fill="#ffb573"/>
        <path id="Path_1522" data-name="Path 1522" d="M213.326,243.091c.139-10.356,1.464-35.021,1.464-35.021L200.17,209.3s2.907,25.419,4.66,35.985C206.655,256.27,212.251,282,212.251,282l5.949-.508S216.027,251.1,213.326,243.091Z" transform="translate(-176.107 -153.969)" fill="#263238"/>
        <path id="Path_1523" data-name="Path 1523" d="M228.855,390.505l7.056-.6-.278-2.277-7.353.492Z" transform="translate(-193.068 -262.313)" fill="#6ab1d4"/>
        <path id="Path_1526" data-name="Path 1526" d="M212.865,97.84a9.845,9.845,0,0,1-1.705,1.983,1.727,1.727,0,0,0,1.289.321Z" transform="translate(-182.738 -89.695)" fill="#ed893e"/>
        <path id="Path_1527" data-name="Path 1527" d="M207.992,97.18c-.059.452.4.829,1.027.908a1.08,1.08,0,0,0,1.269-.718" transform="translate(-180.823 -89.297)" fill="#6ab1d4" opacity="0.4"/>
        <path id="Path_1528" data-name="Path 1528" d="M217.433,98.24c-.087.448.353.853.972.972a1.085,1.085,0,0,0,1.309-.643" transform="translate(-186.516 -89.936)" fill="#6ab1d4" opacity="0.4"/>
        <path id="Path_1529" data-name="Path 1529" d="M212.81,98.623a1.938,1.938,0,0,1-.214,0,1.507,1.507,0,0,1-.821-.369.825.825,0,0,1-.286-.7,1.983,1.983,0,0,0-.635-.159,1.384,1.384,0,0,0-.67,0c-.056.484-.658.817-1.333.734a1.475,1.475,0,0,1-.821-.365.833.833,0,0,1-.286-.7l.19.024a.639.639,0,0,0,.226.539,1.285,1.285,0,0,0,.714.313c.571.075,1.079-.19,1.13-.587.028-.222.488-.206.869-.159s.833.155.793.373a.635.635,0,0,0,.226.539,1.364,1.364,0,0,0,1.487.19.635.635,0,0,0,.357-.464v-.1l4.894.631-.024.19-4.712-.607a.853.853,0,0,1-.436.512A1.4,1.4,0,0,1,212.81,98.623Z" transform="translate(-180.676 -89.224)" fill="#263238"/>
        <path id="Path_1530" data-name="Path 1530" d="M222.511,92.846a.143.143,0,0,0,.079-.024.171.171,0,0,0,.063-.23,1.586,1.586,0,0,0-1.245-.833.171.171,0,0,0-.178.159.167.167,0,0,0,.155.174h0a1.273,1.273,0,0,1,.98.674A.163.163,0,0,0,222.511,92.846Z" transform="translate(-188.814 -86.026)" fill="#263238"/>
        <path id="Path_1531" data-name="Path 1531" d="M210.3,91.963a.171.171,0,0,0,.147-.059,1.352,1.352,0,0,1,1.095-.531.167.167,0,0,0,.182-.151.163.163,0,0,0-.143-.182,1.705,1.705,0,0,0-1.388.654.167.167,0,0,0,.02.234A.2.2,0,0,0,210.3,91.963Z" transform="translate(-182.13 -85.591)" fill="#263238"/>
        <path id="Path_1532" data-name="Path 1532" d="M232.469,240.872c-3.034-15.595-3.716-27.791-6.6-33.712l-14.163,1.586s8.436,23.238,12.557,33.157c4.279,10.312,12.727,27.93,12.727,27.93h7.076S237.466,247.975,232.469,240.872Z" transform="translate(-183.07 -154.052)" fill="#263238"/>
        <path id="Path_1533" data-name="Path 1533" d="M144,141.528l-1.531-.968a1.277,1.277,0,0,0-1.61.186l-1.039,1.095a1.19,1.19,0,0,0,.1,1.733l.742.635a6.048,6.048,0,0,0,2.209,1.19l2.241.662,1.471-1.586C147.038,142.821,144,141.528,144,141.528Z" transform="translate(-139.498 -114.914)" fill="#ffb573"/>
        <path id="Path_1534" data-name="Path 1534" d="M171.507,138.411c-.555,1.356-1.1,2.618-1.69,3.907s-1.19,2.562-1.852,3.827-1.368,2.522-2.169,3.784a21.747,21.747,0,0,1-1.337,1.884,12.034,12.034,0,0,1-1.824,1.892,6.548,6.548,0,0,1-1.464.9c-.167.063-.321.127-.5.182l-.278.075a3.308,3.308,0,0,1-.424.075,3.966,3.966,0,0,1-1.444-.1,5.877,5.877,0,0,1-1.658-.758,9.522,9.522,0,0,1-1.091-.793,26.067,26.067,0,0,1-3.153-3.28c-.924-1.111-1.8-2.225-2.634-3.363s-1.642-2.257-2.467-3.451l4.387-2.832a59.161,59.161,0,0,0,4.585,6.405,21.592,21.592,0,0,0,2.526,2.614,4.982,4.982,0,0,0,.559.4c.147.1.293.139.19.1a1.015,1.015,0,0,0-.428-.024.943.943,0,0,0-.171.032h-.056a2.4,2.4,0,0,0,.258-.194,7.319,7.319,0,0,0,.98-1.087c.337-.452.674-.96,1-1.487a36.374,36.374,0,0,0,1.793-3.387c.555-1.19,1.091-2.38,1.586-3.617s.968-2.495,1.368-3.7Z" transform="translate(-144.338 -112.521)" fill="#6ab1d4"/>
        <g id="Group_228" data-name="Group 228" transform="translate(3.182 23.899)" opacity="0.6">
          <path id="Path_1535" data-name="Path 1535" d="M171.507,138.411c-.555,1.356-1.1,2.618-1.69,3.907s-1.19,2.562-1.852,3.827-1.368,2.522-2.169,3.784a21.747,21.747,0,0,1-1.337,1.884,12.034,12.034,0,0,1-1.824,1.892,6.548,6.548,0,0,1-1.464.9c-.167.063-.321.127-.5.182l-.278.075a3.308,3.308,0,0,1-.424.075,3.966,3.966,0,0,1-1.444-.1,5.877,5.877,0,0,1-1.658-.758,9.522,9.522,0,0,1-1.091-.793,26.067,26.067,0,0,1-3.153-3.28c-.924-1.111-1.8-2.225-2.634-3.363s-1.642-2.257-2.467-3.451l4.387-2.832a59.161,59.161,0,0,0,4.585,6.405,21.592,21.592,0,0,0,2.526,2.614,4.982,4.982,0,0,0,.559.4c.147.1.293.139.19.1a1.015,1.015,0,0,0-.428-.024.943.943,0,0,0-.171.032h-.056a2.4,2.4,0,0,0,.258-.194,7.319,7.319,0,0,0,.98-1.087c.337-.452.674-.96,1-1.487a36.374,36.374,0,0,0,1.793-3.387c.555-1.19,1.091-2.38,1.586-3.617s.968-2.495,1.368-3.7Z" transform="translate(-147.52 -136.42)" fill="#fff"/>
        </g>
        <path id="Path_1536" data-name="Path 1536" d="M209.582,126.012c-1.487,2.776-6.782,13.354-7.425,19.882-2.344-5.949-1.832-19.109-1.832-19.109a17.621,17.621,0,0,0-4.866,1.19,2.939,2.939,0,0,0-1.813,2.483,103.94,103.94,0,0,0,.643,20.414c1.646,12.811,3.173,32.732,3.173,32.732a169.322,169.322,0,0,0,23.222-2.681c-1.233-9.792-5.453-26.2-5.493-30.6-.048-5.656.083-16.713.262-21.33a2.733,2.733,0,0,0-2.189-2.8A13.711,13.711,0,0,0,209.582,126.012Z" transform="translate(-172.03 -106.663)" fill="#6ab1d4"/>
        <path id="Path_1537" data-name="Path 1537" d="M209.582,126.011c-1.487,2.776-6.782,13.354-7.425,19.882-2.344-5.949-1.832-19.109-1.832-19.109a17.622,17.622,0,0,0-4.866,1.19,2.939,2.939,0,0,0-1.813,2.483,103.94,103.94,0,0,0,.643,20.414c1.646,12.811,3.173,32.732,3.173,32.732a169.32,169.32,0,0,0,23.222-2.681c-1.233-9.792-5.453-26.2-5.493-30.6-.048-5.656.083-16.717.262-21.334a2.689,2.689,0,0,0-2.066-2.776A13.608,13.608,0,0,0,209.582,126.011Z" transform="translate(-172.03 -106.662)" fill="#fff" opacity="0.7"/>
        <path id="Path_1538" data-name="Path 1538" d="M219.958,215.418c-2.277-12.561-4.081-30.991-4.228-33.208h.2c.147,2.217,1.955,20.624,4.228,33.185Z" transform="translate(-185.495 -139.683)" fill="#fff"/>
        <path id="Path_1539" data-name="Path 1539" d="M197.357,178.4H185.268a1.13,1.13,0,0,1-1.047-.861L180.18,158.75a.674.674,0,0,1,.674-.861h12.085a1.13,1.13,0,0,1,1.051.861l4.042,18.788a.674.674,0,0,1-.674.861Z" transform="translate(-164.029 -125.3)" fill="#fff"/>
        <path id="Path_1540" data-name="Path 1540" d="M195.956,178.267h-12.3a1.154,1.154,0,0,1-1.067-.877l-4.113-19.1a.69.69,0,0,1,.69-.877h12.3a1.154,1.154,0,0,1,1.067.877l4.109,19.1a.686.686,0,0,1-.686.877Z" transform="translate(-163.004 -125.012)" fill="#6ab1d4"/>
        <path id="Path_1541" data-name="Path 1541" d="M216.286,182.643l-3.058-.115a2.621,2.621,0,0,0-1.075.19l-1.586.635a1.19,1.19,0,0,0-.65,1.586l.635,1.372a1.285,1.285,0,0,0,1.467.69l1.749-.436s3.284-.262,3.4-1.983Z" transform="translate(-181.926 -140.075)" fill="#ffb573"/>
        <path id="Path_1542" data-name="Path 1542" d="M232.474,130.38c.758,1.19,1.452,2.277,2.134,3.443s1.352,2.32,1.983,3.526,1.23,2.451,1.773,3.784a19.269,19.269,0,0,1,.722,2.138,8.96,8.96,0,0,1,.349,2.725v.155a.764.764,0,0,1,0,.079,2.29,2.29,0,0,1-.067.428c-.028.143-.063.254-.1.4a2.737,2.737,0,0,1-.127.329,4.43,4.43,0,0,1-.579.96,6.921,6.921,0,0,1-1.1,1.095,14.437,14.437,0,0,1-1.983,1.313,37.787,37.787,0,0,1-3.776,1.8c-1.249.531-2.495,1.015-3.748,1.471s-2.487.9-3.792,1.333l-1.511-5c1.19-.325,2.4-.726,3.589-1.13s2.38-.857,3.506-1.329a30.907,30.907,0,0,0,3.228-1.559,9.318,9.318,0,0,0,1.257-.837,1.511,1.511,0,0,0,.278-.274.424.424,0,0,0-.079.131.26.26,0,0,1-.04.1.94.94,0,0,0-.036.143.965.965,0,0,0-.032.186v-.008a4.664,4.664,0,0,0-.218-1.107,14.31,14.31,0,0,0-.563-1.527,30.975,30.975,0,0,0-1.642-3.2c-.619-1.063-1.277-2.126-1.983-3.173s-1.428-2.09-2.154-3.042Z" transform="translate(-189.671 -108.899)" fill="#6ab1d4"/>
        <g id="Group_229" data-name="Group 229" transform="translate(32.979 21.481)" opacity="0.7">
          <path id="Path_1543" data-name="Path 1543" d="M232.474,130.38c.758,1.19,1.452,2.277,2.134,3.443s1.352,2.32,1.983,3.526,1.23,2.451,1.773,3.784a19.269,19.269,0,0,1,.722,2.138,8.96,8.96,0,0,1,.349,2.725v.155a.764.764,0,0,1,0,.079,2.29,2.29,0,0,1-.067.428c-.028.143-.063.254-.1.4a2.737,2.737,0,0,1-.127.329,4.43,4.43,0,0,1-.579.96,6.921,6.921,0,0,1-1.1,1.095,14.437,14.437,0,0,1-1.983,1.313,37.787,37.787,0,0,1-3.776,1.8c-1.249.531-2.495,1.015-3.748,1.471s-2.487.9-3.792,1.333l-1.511-5c1.19-.325,2.4-.726,3.589-1.13s2.38-.857,3.506-1.329a30.907,30.907,0,0,0,3.228-1.559,9.318,9.318,0,0,0,1.257-.837,1.511,1.511,0,0,0,.278-.274.424.424,0,0,0-.079.131.26.26,0,0,1-.04.1.94.94,0,0,0-.036.143.965.965,0,0,0-.032.186v-.008a4.664,4.664,0,0,0-.218-1.107,14.31,14.31,0,0,0-.563-1.527,30.975,30.975,0,0,0-1.642-3.2c-.619-1.063-1.277-2.126-1.983-3.173s-1.428-2.09-2.154-3.042Z" transform="translate(-222.65 -130.38)" fill="#fff"/>
        </g>
        <path id="Path_1544" data-name="Path 1544" d="M228.854,145.994a.159.159,0,0,1-.083-.293l.619-.4a3.371,3.371,0,0,0,1.507-3.514l-1.245-6.306a2.134,2.134,0,0,0-4.149-.175l-1.765,6.183a3.359,3.359,0,0,0,1.19,3.625l.587.444a.159.159,0,0,1,.028.222.155.155,0,0,1-.218.028l-.555-.44a3.681,3.681,0,0,1-1.321-3.966l1.769-6.183a2.451,2.451,0,0,1,4.759.2l1.245,6.31a3.681,3.681,0,0,1-1.646,3.839l-.623.4a.131.131,0,0,1-.1.028Z" transform="translate(-190.064 -110.772)" fill="#263238"/>
        <path id="Path_1545" data-name="Path 1545" d="M232.694,138.144h0l-4.454-.186a.159.159,0,0,1-.151-.167.167.167,0,0,1,.167-.151l4.45.186a.159.159,0,0,1,.151.167.155.155,0,0,1-.163.151Z" transform="translate(-192.953 -113.71)" fill="#263238"/>
        <path id="Path_1546" data-name="Path 1546" d="M232.332,129.785a.163.163,0,0,1-.159-.155c0-.793-.246-2.169-.988-2.471a.159.159,0,1,1,.119-.293c1.1.452,1.19,2.522,1.19,2.776a.163.163,0,0,1-.155.163Z" transform="translate(-194.756 -107.2)" fill="#263238"/>
        <path id="Path_1547" data-name="Path 1547" d="M199.65,135.453h-.032a.159.159,0,0,1-.123-.186c.524-2.606,2.689-6.719,4.6-7.932a.155.155,0,0,1,.214.052.151.151,0,0,1-.048.214c-1.844,1.166-3.946,5.156-4.454,7.722A.159.159,0,0,1,199.65,135.453Z" transform="translate(-175.698 -107.478)" fill="#263238"/>
        <path id="Path_1548" data-name="Path 1548" d="M200.715,146.625c-.246.631-.793,1.011-1.19.849s-.551-.793-.305-1.44.793-1.011,1.19-.845S200.965,145.994,200.715,146.625Z" transform="translate(-175.462 -117.785)" fill="#fff"/>
        <path id="Path_1549" data-name="Path 1549" d="M228.489,163.521c0,.293-.182.527-.377.52s-.345-.254-.333-.551.182-.531.377-.52S228.5,163.223,228.489,163.521Z" transform="translate(-192.765 -128.423)" fill="#fff"/>
        <path id="Path_1550" data-name="Path 1550" d="M237.115,163.881c0,.294-.178.527-.377.52s-.341-.254-.329-.551.178-.527.4-.52S237.127,163.6,237.115,163.881Z" transform="translate(-197.972 -128.638)" fill="#fff"/>
      </g>
      <g id="freepik--Chat--inject-2" transform="translate(108.389 86.648)">
        <path id="Path_1551" data-name="Path 1551" d="M397.82,140.188l-.4-.024a6.112,6.112,0,0,0-6.144-6.588v-.4a6.5,6.5,0,0,1,6.54,7.008Z" transform="translate(-343.214 -133.179)" fill="#6ab1d4"/>
        <rect id="Rectangle_374" data-name="Rectangle 374" width="3.292" height="0.398" transform="translate(54.585 11.955) rotate(-85.996)" fill="#6ab1d4"/>
        <path id="Path_1552" data-name="Path 1552" d="M340.263,136.68H312.9a6.021,6.021,0,0,0-5.9,5.529l-.25,3.685a5.12,5.12,0,0,0,5.156,5.529h27.366l5.307,3.272.841-12.485a5.116,5.116,0,0,0-5.152-5.529Z" transform="translate(-292.197 -135.291)" fill="#6ab1d4"/>
        <rect id="Rectangle_375" data-name="Rectangle 375" width="25.348" height="0.92" transform="translate(21.33 6.667)" fill="#fff"/>
        <rect id="Rectangle_376" data-name="Rectangle 376" width="18.819" height="0.92" transform="translate(27.636 9.931)" fill="#fff"/>
        <path id="Path_1553" data-name="Path 1553" d="M276.987,186.38h27.969a5.231,5.231,0,0,1,5.271,5.652l-.254,3.768a6.159,6.159,0,0,1-6.032,5.652H275.968L270.09,204.8l.865-12.771a6.155,6.155,0,0,1,6.033-5.652Z" transform="translate(-270.09 -165.279)" fill="#fff"/>
        <path id="Path_1554" data-name="Path 1554" d="M276.987,186.38h27.969a5.231,5.231,0,0,1,5.271,5.652l-.254,3.768a6.159,6.159,0,0,1-6.032,5.652H275.968L270.09,204.8l.865-12.771a6.155,6.155,0,0,1,6.033-5.652Z" transform="translate(-270.09 -165.279)" fill="#6ab1d4" opacity="0.15"/>
        <rect id="Rectangle_377" data-name="Rectangle 377" width="25.923" height="0.944" transform="translate(7.524 26.498)" fill="#6ab1d4" opacity="0.5"/>
        <rect id="Rectangle_378" data-name="Rectangle 378" width="10.245" height="0.944" transform="translate(7.298 29.833)" fill="#6ab1d4" opacity="0.5"/>
        <rect id="Rectangle_379" data-name="Rectangle 379" width="6.544" height="0.944" transform="translate(20.053 29.833)" fill="#6ab1d4" opacity="0.5"/>
      </g>
    </g>
  </g>
</svg>
